<svg width="32" height="34" viewBox="0 0 32 34" fill="none" xmlns="http://www.w3.org/2000/svg">
<g clip-path="url(#clip0_2702_64)">
<path d="M26.9489 9.72423C27.0089 10.6392 26.9339 11.6742 26.7539 12.8292L25.6589 19.8642C24.7289 25.7292 22.0139 27.7092 16.1489 26.7942L9.11389 25.6842C7.08889 25.3692 5.52889 24.8292 4.38889 24.0192C2.21389 22.5042 1.58389 20.0142 2.18389 16.1742L3.29389 9.13923C4.22389 3.27423 6.93889 1.29423 12.8039 2.20923L19.8389 3.31923C24.5489 4.05423 26.7539 5.97423 26.9489 9.72423Z" stroke="white" stroke-width="2.5" stroke-linecap="round" stroke-linejoin="round"/>
<path d="M29.7478 19.205L27.4978 25.97C25.6228 31.61 22.6228 33.11 16.9828 31.235L10.2178 28.985C6.81281 27.86 4.92281 26.3 4.38281 24.02C5.52281 24.83 7.08281 25.37 9.10781 25.685L16.1428 26.795C22.0078 27.71 24.7228 25.73 25.6528 19.865L26.7478 12.83C26.9278 11.675 27.0028 10.64 26.9428 9.725C30.5278 11.63 31.3078 14.51 29.7478 19.205ZM11.3578 12.47C11.7006 12.47 12.04 12.4025 12.3566 12.2713C12.6733 12.1402 12.961 11.9479 13.2034 11.7055C13.4457 11.4632 13.638 11.1755 13.7691 10.8588C13.9003 10.5421 13.9678 10.2027 13.9678 9.86C13.9678 9.51725 13.9003 9.17786 13.7691 8.8612C13.638 8.54454 13.4457 8.25681 13.2034 8.01445C12.961 7.77209 12.6733 7.57984 12.3566 7.44867C12.04 7.31751 11.7006 7.25 11.3578 7.25C10.6656 7.25 10.0017 7.52498 9.51226 8.01445C9.02279 8.50392 8.74781 9.16778 8.74781 9.86C8.74781 10.5522 9.02279 11.2161 9.51226 11.7055C10.0017 12.195 10.6656 12.47 11.3578 12.47Z" stroke="white" stroke-width="2.5" stroke-linecap="round" stroke-linejoin="round"/>
</g>
<defs>
<clipPath id="clip0_2702_64">
<rect width="32" height="34" fill="white"/>
</clipPath>
</defs>
</svg>
