<svg width="45" height="45" viewBox="0 0 45 45" fill="none" xmlns="http://www.w3.org/2000/svg">
<path d="M22.4991 0C15.2616 0 9.37405 5.8875 9.37405 13.125C9.37405 20.3625 15.2616 26.25 22.4991 26.25C29.7365 26.25 35.624 20.3625 35.624 13.125C35.624 5.8875 29.7365 0 22.4991 0ZM29.5997 12.6694L27.0478 15.285L27.6534 18.9938C27.6954 19.2541 27.6634 19.5209 27.561 19.7639C27.4586 20.0069 27.2899 20.2162 27.0743 20.3679C26.8586 20.5196 26.6047 20.6076 26.3414 20.6219C26.0781 20.6362 25.8161 20.5762 25.5853 20.4488L22.4991 18.7444L19.4128 20.4506C19.1819 20.5796 18.9192 20.6407 18.6551 20.627C18.391 20.6132 18.1361 20.5252 17.9198 20.3729C17.7035 20.2207 17.5346 20.0105 17.4325 19.7665C17.3305 19.5225 17.2993 19.2546 17.3428 18.9938L17.9484 15.285L15.3984 12.6694C15.218 12.4843 15.092 12.253 15.0344 12.001C14.9768 11.7489 14.9898 11.4859 15.072 11.2408C15.1541 10.9957 15.3023 10.7779 15.5001 10.6115C15.698 10.4451 15.9379 10.3365 16.1934 10.2975L19.6641 9.76688L21.2278 6.435C21.689 5.44687 23.3109 5.44687 23.7722 6.435L25.3359 9.76688L28.8066 10.2975C29.0627 10.3355 29.3034 10.4437 29.5018 10.61C29.7003 10.7764 29.8488 10.9945 29.9309 11.2401C30.0131 11.4857 30.0256 11.7492 29.9671 12.0015C29.9087 12.2538 29.7815 12.4849 29.5997 12.6694ZM11.1741 24.3375L3.9178 37.3688C3.67405 37.8188 3.6928 38.3813 3.97405 38.8125C4.2553 39.2438 4.7428 39.5063 5.2678 39.45L11.0428 39.0187L13.5928 44.2125C13.8366 44.6812 14.3053 44.9813 14.8116 45H14.8491C15.3553 45 15.8428 44.7188 16.0866 44.2875L20.8116 35.8875L16.2178 27.7688C14.3326 26.9581 12.6204 25.7933 11.1741 24.3375ZM41.0615 37.3688L33.749 24.4125C31.3167 26.846 28.1568 28.4194 24.7491 28.8937C24.0178 29.0062 23.2678 29.0625 22.4991 29.0625C21.6741 29.0625 20.8678 29.0062 20.0803 28.875L22.4241 33.0188L28.7803 44.2875C29.0241 44.7188 29.4928 45 29.9991 45H30.0366C30.5616 44.9813 31.0303 44.6812 31.2741 44.2125L33.8428 39.0187L39.7303 39.4687C40.2553 39.5062 40.7428 39.2625 41.024 38.8125C41.3053 38.3813 41.324 37.8188 41.0615 37.3688Z" fill="#55E6A5"/>
</svg>
