<svg width="32" height="32" viewBox="0 0 32 32" fill="none" xmlns="http://www.w3.org/2000/svg">
<path d="M11.7526 30.1654H20.2526C27.3359 30.1654 30.1693 27.332 30.1693 20.2487V11.7487C30.1693 4.66536 27.3359 1.83203 20.2526 1.83203H11.7526C4.66927 1.83203 1.83594 4.66536 1.83594 11.7487V20.2487C1.83594 27.332 4.66927 30.1654 11.7526 30.1654Z" stroke="white" stroke-width="2.5" stroke-linecap="round" stroke-linejoin="round"/>
<path d="M8.91406 16.2249H12.7107C13.7166 16.2249 14.3966 16.9899 14.3966 17.9107V20.0216C14.3966 20.9424 13.7166 21.7074 12.7107 21.7074H10.5999C10.1539 21.7037 9.72728 21.5249 9.41192 21.2095C9.09657 20.8942 8.91776 20.4675 8.91406 20.0216V16.2249ZM8.91406 16.2249C8.91406 12.2724 9.65073 11.6066 11.8749 10.2891M17.6124 16.2249H21.4091C22.4149 16.2249 23.0949 16.9899 23.0949 17.9107V20.0216C23.0949 20.9424 22.4149 21.7074 21.4091 21.7074H19.2982C18.8523 21.7037 18.4256 21.5249 18.1103 21.2095C17.7949 20.8942 17.6161 20.4675 17.6124 20.0216V16.2249ZM17.6124 16.2249C17.6124 12.2724 18.3491 11.6066 20.5732 10.2891" stroke="white" stroke-width="2.5" stroke-linecap="round" stroke-linejoin="round"/>
</svg>
