<svg width="32" height="32" viewBox="0 0 32 32" fill="none" xmlns="http://www.w3.org/2000/svg">
<path d="M24.7014 29.6266C23.4547 29.9949 21.9814 30.1649 20.253 30.1649H11.753C10.0247 30.1649 8.55135 29.9949 7.30469 29.6266C7.61635 25.9432 11.3989 23.0391 16.003 23.0391C20.6072 23.0391 24.3897 25.9432 24.7014 29.6266Z" stroke="white" stroke-width="2.5" stroke-linecap="round" stroke-linejoin="round"/>
<path d="M20.2526 1.83203H11.7526C4.66927 1.83203 1.83594 4.66536 1.83594 11.7487V20.2487C1.83594 25.6037 3.45094 28.5362 7.30427 29.627C7.61594 25.9437 11.3984 23.0395 16.0026 23.0395C20.6068 23.0395 24.3893 25.9437 24.7009 29.627C28.5543 28.5362 30.1693 25.6037 30.1693 20.2487V11.7487C30.1693 4.66536 27.3359 1.83203 20.2526 1.83203ZM16.0026 19.0729C13.1976 19.0729 10.9309 16.792 10.9309 13.987C10.9309 11.182 13.1976 8.91536 16.0026 8.91536C18.8076 8.91536 21.0743 11.182 21.0743 13.987C21.0743 16.792 18.8076 19.0729 16.0026 19.0729Z" stroke="white" stroke-width="2.5" stroke-linecap="round" stroke-linejoin="round"/>
</svg>
