<svg width="76" height="76" viewBox="0 0 76 76" fill="none" xmlns="http://www.w3.org/2000/svg">
<g id="Iconsax/Linear/mobile">
<path id="Vector" d="M44.3435 17.3606H31.7155M63.2856 22.0955V53.6616C63.2856 66.288 60.1286 69.4446 47.5006 69.4446H28.5585C15.9304 69.4446 12.7734 66.288 12.7734 53.6616V22.0955C12.7734 9.46911 15.9304 6.3125 28.5585 6.3125H47.5006C60.1286 6.3125 63.2856 9.46911 63.2856 22.0955Z" stroke="#02050A" stroke-width="4.05887" stroke-linecap="round" stroke-linejoin="round"/>
<path id="Vector_2" d="M37.8934 60.2933C39.1912 60.2933 40.4358 59.7778 41.3535 58.8602C42.2712 57.9427 42.7867 56.6982 42.7867 55.4006C42.7867 54.1029 42.2712 52.8584 41.3535 51.9409C40.4358 51.0233 39.1912 50.5078 37.8934 50.5078C36.5956 50.5078 35.3509 51.0233 34.4332 51.9409C33.5156 52.8584 33 54.1029 33 55.4006C33 56.6982 33.5156 57.9427 34.4332 58.8602C35.3509 59.7778 36.5956 60.2933 37.8934 60.2933Z" stroke="#02050A" stroke-width="4.05887" stroke-linecap="round" stroke-linejoin="round"/>
</g>
</svg>
