<svg width="73" height="73" viewBox="0 0 73 73" fill="none" xmlns="http://www.w3.org/2000/svg">
<g id="Iconsax/Linear/pentool2">
<path id="Vector" d="M43.0784 57.63L48.28 53.0003C51.1965 50.4149 51.3167 48.6112 49.0016 45.695L39.8312 34.0607C37.907 31.6256 34.7499 31.6256 32.8257 34.0607L23.6553 45.695C21.3402 48.6112 21.3402 50.5051 24.3769 53.0003L29.5785 57.63M36.3134 33.4294V41.0353M32.525 67.641H40.1018C42.9882 67.641 44.8524 65.5967 44.3112 63.1015L43.0784 57.6601H29.5484L28.3157 63.1015C27.7745 65.4464 29.819 67.641 32.525 67.641Z" stroke="#02050A" stroke-width="4.50985" stroke-linecap="round" stroke-linejoin="round"/>
<g id="Group">
<path id="Vector_2" d="M31.7816 10.7054C20.3262 12.0583 11.4264 21.7686 11.4264 33.5833M61.0366 33.5833C61.0366 21.7987 52.197 12.1184 40.8017 10.7054M37.795 15.0345H34.7883C33.1347 15.0345 31.7816 13.6817 31.7816 12.0282V9.02192C31.7816 7.36846 33.1347 6.01562 34.7883 6.01562H37.795C39.4487 6.01562 40.8017 7.36846 40.8017 9.02192V12.0282C40.8017 13.6817 39.4487 15.0345 37.795 15.0345ZM9.98324 42.6022H12.9899C14.6436 42.6022 15.9966 41.2494 15.9966 39.5959V36.5896C15.9966 34.9362 14.6436 33.5833 12.9899 33.5833H9.98324C8.32957 33.5833 6.97656 34.9362 6.97656 36.5896V39.5959C6.97656 41.2494 8.32957 42.6022 9.98324 42.6022ZM62.4798 42.6022H59.4731C57.8195 42.6022 56.4665 41.2494 56.4665 39.5959V36.5896C56.4665 34.9362 57.8195 33.5833 59.4731 33.5833H62.4798C64.1335 33.5833 65.4865 34.9362 65.4865 36.5896V39.5959C65.4865 41.2494 64.1335 42.6022 62.4798 42.6022Z" stroke="#02050A" stroke-width="4.50985" stroke-linecap="round" stroke-linejoin="round"/>
</g>
</g>
</svg>
