<svg width="32" height="32" viewBox="0 0 32 32" fill="none" xmlns="http://www.w3.org/2000/svg">
<path d="M24.4743 14.2858V19.9525C24.4743 20.3208 24.4601 20.675 24.4176 21.015C24.0918 24.84 21.8393 26.7383 17.6884 26.7383H17.1218C16.7676 26.7383 16.4276 26.9083 16.2151 27.1917L14.5151 29.4583C13.7643 30.4642 12.5459 30.4642 11.7951 29.4583L10.0951 27.1917C9.98171 27.0596 9.84311 26.9515 9.68743 26.8737C9.53175 26.7958 9.36211 26.7498 9.18844 26.7383H8.62177C4.1026 26.7383 1.83594 25.6192 1.83594 19.9525V14.2858C1.83594 10.135 3.74844 7.8825 7.55927 7.55667C7.89927 7.51417 8.25344 7.5 8.62177 7.5H17.6884C22.2076 7.5 24.4743 9.76667 24.4743 14.2858Z" stroke="white" stroke-width="2.5" stroke-miterlimit="10" stroke-linecap="round" stroke-linejoin="round"/>
<path d="M30.1364 8.61786V14.2845C30.1364 18.4495 28.2239 20.6879 24.413 21.0137C24.4555 20.6737 24.4697 20.3195 24.4697 19.9512V14.2845C24.4697 9.76536 22.203 7.4987 17.6839 7.4987H8.61719C8.24885 7.4987 7.89469 7.51286 7.55469 7.55536C7.88052 3.74453 10.133 1.83203 14.2839 1.83203H23.3505C27.8697 1.83203 30.1364 4.0987 30.1364 8.61786Z" stroke="white" stroke-width="2.5" stroke-miterlimit="10" stroke-linecap="round" stroke-linejoin="round"/>
<path d="M18.1198 17.7695H18.134M13.1615 17.7695H13.1756M8.20312 17.7695H8.21729" stroke="white" stroke-width="2.5" stroke-linecap="round" stroke-linejoin="round"/>
</svg>
