<svg width="100" height="106" viewBox="0 0 100 106" fill="none" xmlns="http://www.w3.org/2000/svg">
<circle cx="70" cy="30" r="30" fill="#55E6A5"/>
<path d="M39.6074 68.75V77.5" stroke="white" stroke-width="2.25" stroke-linecap="round" stroke-linejoin="round"/>
<path d="M23.7734 91.668H65.4401V87.5013C65.4401 82.918 61.6901 79.168 57.1068 79.168H32.1068C27.5234 79.168 23.7734 82.918 23.7734 87.5013V91.668Z" stroke="white" stroke-width="2.25" stroke-miterlimit="10"/>
<path d="M19.6257 91.6654H69.6257M44.0007 66.6654C27.8757 66.6654 14.834 53.6237 14.834 37.4987V24.9987C14.834 15.7904 22.2923 8.33203 31.5007 8.33203H56.5007C65.709 8.33203 73.1673 15.7904 73.1673 24.9987V37.4987C73.1673 53.6237 60.1257 66.6654 44.0007 66.6654Z" stroke="white" stroke-width="2.25" stroke-linecap="round" stroke-linejoin="round"/>
<path d="M16.7995 48.5417C13.6745 47.5417 10.9245 45.7083 8.75781 43.5417C5.00781 39.375 2.50781 34.375 2.50781 28.5417C2.50781 22.7083 7.09115 18.125 12.9245 18.125H15.6328C14.7995 20.0417 14.3828 22.1667 14.3828 24.375V36.875C14.3828 41.0417 15.2578 44.9583 16.7995 48.5417ZM71.2162 48.5417C74.3412 47.5417 77.0911 45.7083 79.2578 43.5417C83.0078 39.375 85.5078 34.375 85.5078 28.5417C85.5078 22.7083 80.9245 18.125 75.0911 18.125H72.3828C73.2161 20.0417 73.6328 22.1667 73.6328 24.375V36.875C73.6328 41.0417 72.7578 44.9583 71.2162 48.5417Z" stroke="white" stroke-width="2.25" stroke-linecap="round" stroke-linejoin="round"/>
</svg>
