<svg width="32" height="32" viewBox="0 0 32 32" fill="none" xmlns="http://www.w3.org/2000/svg">
<path d="M10.3345 7.4987V6.36536C10.3345 3.85786 10.3345 1.83203 14.8678 1.83203H17.1345C21.6678 1.83203 21.6678 3.85786 21.6678 6.36536V7.4987M10.3345 30.1654H21.6678C27.3628 30.1654 28.3828 27.8845 28.6803 25.1079L29.7428 13.7745C30.1253 10.3179 29.1336 7.4987 23.0845 7.4987H8.9178C2.86864 7.4987 1.87697 10.3179 2.25947 13.7745L3.32197 25.1079C3.61947 27.8845 4.63947 30.1654 10.3345 30.1654Z" stroke="white" stroke-width="2.5" stroke-miterlimit="10" stroke-linecap="round" stroke-linejoin="round"/>
<path d="M18.8326 18.8604V17.4154C18.8326 15.9987 18.8326 15.9987 17.4159 15.9987H14.5826C13.1659 15.9987 13.1659 15.9987 13.1659 17.4154V18.8745M18.8326 18.8604C18.8326 20.4045 18.8184 21.6654 15.9993 21.6654C13.1943 21.6654 13.1659 20.4187 13.1659 18.8745M18.8326 18.8604C22.7486 18.3728 26.4771 16.9009 29.6701 14.582M13.1659 18.8745C9.49677 18.4637 5.89844 17.1462 2.71094 14.9645" stroke="white" stroke-width="2.5" stroke-miterlimit="10" stroke-linecap="round" stroke-linejoin="round"/>
</svg>
